<?xml version="1.0" encoding="UTF-8"?>
<svg width="174px" height="44px" viewBox="0 0 174 44" version="1.1" xmlns="http://www.w3.org/2000/svg" xmlns:xlink="http://www.w3.org/1999/xlink">
    <title>Navigation (classic) / Ω - Atoms / Brand marks / First Horizon - on light</title>
    <g id="Navigation-(classic)-/-Ω---Atoms-/-Brand-marks-/-First-Horizon---on-light" stroke="none" stroke-width="1" fill="none" fill-rule="evenodd">
        <g id="first-horizon-logo-on-dark-copy" transform="translate(2.000000, 2.000000)" fill-rule="nonzero">
            <g id="Group-3" transform="translate(0.000000, 0.930233)">
                <path d="M39.9647927,26.9767442 L39.9647927,0 L13.9412068,0 C26.2572611,4.43168124 35.9383903,14.4252711 39.9647927,26.9767442" id="Path" fill="#FE3B1F"></path>
                <path d="M36.2471376,37.9963657 C36.2471376,31.4105835 34.4535841,25.2543088 31.3293296,19.9284154 L22.5062035,25.9415209 L22.5062035,35.333419 L15.2162764,29.8643564 L3.00854135,35.333419 L10.0670422,24.7675336 L4.71531,18.8403297 L14.5509259,18.5826251 L22.1590642,9.44843156 C16.0262683,4.75248252 8.33134527,1.91773279 0,1.86046512 L0,34.3598686 C0,36.4501386 1.70676865,38.1395349 3.81853325,38.1395349 L36.2471376,38.1395349 L36.2471376,37.9963657 Z" id="Path" fill="#0057A7"></path>
                <path d="M23.2353446,9.30232558 L23.2353446,18.3979328 L31.6000687,18.6046512 C29.3674911,15.0609081 26.5097917,11.9306017 23.2353446,9.30232558" id="Path" fill="#0057A7"></path>
            </g>
            <path d="M102.220213,11.7549553 C102.220213,14.9355856 99.5295221,17.2441076 95.8394317,17.2441076 C93.815007,17.2441076 92.0980899,16.8080534 90.6630547,15.9102949 C90.2530447,15.6537925 89.8686603,15.3716398 89.5099015,15.0381866 L91.9187105,11.7293051 C93.815007,13.4735217 95.7369291,13.396571 96.4031955,13.3196202 L96.4288211,13.3196202 C96.4800724,13.3196202 96.505698,13.3196202 96.5569493,13.29397 C96.6082005,13.29397 96.6338261,13.2683197 96.6338261,13.2683197 C97.4538462,13.1144183 97.9151076,12.6270636 97.9151076,11.9088568 C97.9151076,10.9084973 96.9413337,10.6776451 94.8400322,10.1646402 L94.8144065,10.1646402 L94.5837759,10.1133397 C94.4556477,10.0876894 94.3531452,10.0620392 94.2250171,10.036389 C93.9175095,9.95943822 93.610002,9.88248749 93.3281201,9.80553676 C91.2268186,9.16428065 89.3305221,8.0356699 89.3305221,5.21414303 C89.3305221,2.23871469 91.9187105,0.0584439304 95.4550472,0.0584439304 C97.1463387,0.0584439304 98.504497,0.366246862 99.7345272,1.05880346 C99.9651578,1.18705468 100.195788,1.34095614 100.426419,1.49485761 C100.580173,1.59745859 100.733927,1.72570981 100.862055,1.82831079 C100.88768,1.85396103 101.118311,2.03351274 101.143937,2.05916298 L98.9145071,5.1371923 C98.8888814,5.11154205 98.6326251,4.93199034 98.6326251,4.9063401 C96.8644568,3.54687715 95.3781704,3.72642886 95.3781704,3.72642886 C94.0968889,3.72642886 93.5074995,4.41898546 93.5074995,5.08589181 C93.5074995,5.85539914 94.4043965,6.11190158 95.7881804,6.44535476 C95.9163085,6.471005 96.0444367,6.49665525 96.1981905,6.54795573 C96.3775699,6.59925622 96.5825749,6.62490647 96.7619543,6.67620696 C96.9413337,6.72750744 97.0950874,6.75315769 97.2744668,6.80445818 L97.3000925,6.80445818 C99.8626553,7.44571428 102.220213,8.47172406 102.220213,11.7549553 Z M48.4832705,17.1928071 L52.6089967,17.1928071 L52.6089967,10.985448 L58.8103987,10.985448 L58.8103987,7.13791135 L52.6089967,7.13791135 L52.6089967,4.41898546 L59.9891777,4.41898546 L59.9891777,0.520148327 L48.4832705,0.520148327 L48.4832705,17.1928071 Z M64.0124013,17.1928071 L68.1893787,17.1928071 L68.1893787,0.520148327 L64.0124013,0.520148327 L64.0124013,17.1928071 Z M103.7065,4.34203473 L108.165359,4.34203473 L108.165359,17.1928071 L112.214208,17.1928071 L112.214208,4.34203473 L116.621816,4.34203473 L116.621816,0.520148327 L103.7065,0.520148327 L103.7065,4.34203473 Z M78.2602506,8.0356699 L77.337728,8.0356699 L77.337728,3.88033033 L78.2602506,3.88033033 C79.7465371,3.88033033 81.1815723,4.23943375 81.1815723,5.77844841 C81.2071979,7.57396551 79.7465371,8.0356699 78.2602506,8.0356699 Z M83.0009919,9.67728554 C84.2822733,9.1899309 85.9479391,7.83046795 85.9479391,5.47064547 C85.9479391,2.39261616 83.5135044,0.520148327 79.0546451,0.520148327 L72.8276174,0.520148327 L72.8276174,17.1928071 L77.337728,17.1928071 L77.337728,11.1649997 L78.9777682,11.1649997 L82.1809718,17.1671569 L87.2292205,17.1671569 L83.0009919,9.67728554 Z M57.6828711,28.7867175 L52.4808686,28.7867175 L52.4808686,22.5280579 L48.3295168,22.5280579 L48.3295168,39.226367 L52.4808686,39.226367 L52.4808686,32.8907566 L57.6828711,32.8907566 L57.6828711,39.226367 L61.8342229,39.226367 L61.8342229,22.5280579 L57.6828711,22.5280579 L57.6828711,28.7867175 Z M78.4140044,30.8900376 C78.4140044,33.4037615 76.4920823,35.3788303 74.032022,35.3788303 C71.5975873,35.3788303 69.6756652,33.4037615 69.6756652,30.8900376 C69.6756652,28.3506634 71.5719616,26.3755946 74.032022,26.3755946 C76.4920823,26.3755946 78.4140044,28.3506634 78.4140044,30.8900376 L78.4140044,30.8900376 Z M74.032022,22.322856 C69.342532,22.322856 65.5243134,26.1703926 65.5243134,30.8900376 C65.5243134,33.1985595 66.3955847,35.3531801 68.0099993,36.9691455 C69.5987883,38.5851108 71.751341,39.4828694 74.0576476,39.4828694 C78.8496401,39.4828694 82.5909818,35.7122835 82.5909818,30.9156878 C82.5653562,26.1703926 78.7215119,22.322856 74.032022,22.322856 L74.032022,22.322856 Z M103.834628,39.226367 L107.985979,39.226367 L107.985979,22.5280579 L103.834628,22.5280579 L103.834628,39.226367 Z M124.412007,26.1960429 L124.412007,22.5280579 L112.572967,22.5280579 L112.572967,26.3499443 L119.491887,26.3499443 L112.367962,36.1739879 L112.367962,39.226367 L124.51451,39.226367 L124.51451,35.3788303 L117.749344,35.3788303 L124.412007,26.1960429 Z M140.120517,30.8900376 C140.120517,33.4037615 138.198595,35.3788303 135.738535,35.3788303 C133.3041,35.3788303 131.382178,33.4037615 131.382178,30.8900376 C131.382178,28.3506634 133.278475,26.3755946 135.738535,26.3755946 C138.17297,26.3755946 140.120517,28.3506634 140.120517,30.8900376 Z M135.712909,22.322856 C131.023419,22.322856 127.205201,26.1703926 127.205201,30.8900376 C127.205201,33.1985595 128.076472,35.3531801 129.690887,36.9691455 C131.279676,38.5851108 133.432228,39.4828694 135.738535,39.4828694 C140.530527,39.4828694 144.271869,35.7122835 144.271869,30.9156878 C144.271869,26.1703926 140.428025,22.322856 135.712909,22.322856 Z M158.237837,22.5280579 L158.237837,32.1982 L152.215814,22.5793584 L152.190188,22.5280579 L147.910708,22.5280579 L147.910708,39.226367 L151.882681,39.226367 L151.882681,29.1201707 L158.186585,39.1750665 L158.212211,39.226367 L162.184183,39.226367 L162.184183,22.5280579 L158.237837,22.5280579 Z M91.6880799,30.0692297 L90.7399316,30.0692297 L90.7399316,25.9138902 L91.6624542,25.9138902 C93.1487407,25.9138902 94.5837759,26.2729936 94.5837759,27.8120082 C94.6094015,29.6075253 93.1487407,30.0692297 91.6880799,30.0692297 Z M96.4031955,31.7108454 C97.6844769,31.2234907 99.3501427,29.8640278 99.3501427,27.5042053 C99.3501427,24.426176 96.9157081,22.5537082 92.4568487,22.5537082 L86.229821,22.5537082 L86.229821,39.226367 L90.7399316,39.226367 L90.7399316,33.2242098 L92.3799718,33.2242098 L95.5831754,39.226367 L100.631424,39.226367 L96.4031955,31.7108454 Z M165.797397,38.5338104 C165.899899,38.7903128 166.104904,38.9442143 166.412412,38.9442143 C166.71992,38.9442143 166.95055,38.7903128 166.95055,38.5338104 C166.95055,38.3542586 166.848048,38.2260074 166.566166,38.1490567 L166.13053,38.0464557 C165.797397,37.969505 165.566766,37.7899533 165.566766,37.4308499 C165.566766,37.0204459 165.899899,36.7382933 166.361161,36.7382933 C166.848048,36.7382933 167.155555,36.9947957 167.232432,37.3795494 L166.924925,37.3795494 C166.848048,37.1743474 166.668668,36.9947957 166.361161,36.9947957 C166.079279,36.9947957 165.874274,37.1486972 165.874274,37.3795494 C165.874274,37.5847513 166.002402,37.6873523 166.258658,37.7386528 L166.668668,37.8412538 C167.053053,37.9438547 167.258058,38.1490567 167.258058,38.4825099 C167.258058,38.918564 166.899299,39.1750665 166.438038,39.1750665 C165.951151,39.1750665 165.592392,38.9442143 165.515515,38.5081601 L165.797397,38.5081601 L165.797397,38.5338104 Z M168.744344,39.1750665 L167.975575,37.3282489 L167.975575,39.1750665 L167.668068,39.1750665 L167.668068,36.7639435 L168.026827,36.7639435 L168.846847,38.7390123 L169.666867,36.7639435 L170,36.7639435 L170,39.1750665 L169.692492,39.1750665 L169.692492,37.3282489 L168.949349,39.1750665 L168.744344,39.1750665 Z" id="Shape" fill="#0057A7"></path>
        </g>
    </g>
</svg>