<?xml version="1.0" encoding="UTF-8"?>
<svg width="174px" height="44px" viewBox="0 0 174 44" version="1.1" xmlns="http://www.w3.org/2000/svg" xmlns:xlink="http://www.w3.org/1999/xlink">
    <title>Navigation (classic) / Ω - Atoms / Brand marks / First Horizon - on dark</title>
    <g id="Navigation-(classic)-/-Ω---Atoms-/-Brand-marks-/-First-Horizon---on-dark" stroke="none" stroke-width="1" fill="none" fill-rule="evenodd">
        <g id="first-horizon-logo-on-dark" transform="translate(2.000000, 2.000000)">
            <g id="Group">
                <path d="M0,0 L40,0 L40,40 L4,40 C1.790861,40 2.705415e-16,38.209139 0,36 L0,0 L0,0 Z" id="background" fill="#FFFFFF"></path>
                <path d="M38.1395349,26.9767442 L38.1395349,2.79069767 L14.8837209,2.79069767 C25.8898854,6.76392913 34.5413657,15.7236994 38.1395349,26.9767442" id="Path" fill="#FE3B1F" fill-rule="nonzero"></path>
                <path d="M35.3488372,37.0808172 C35.3488372,31.1704998 33.7378199,25.6456379 30.9315318,20.86599 L23.0063661,26.2623667 L23.0063661,34.6909932 L16.4583604,29.7828601 L5.49304924,34.6909932 L11.8331818,25.2087884 L7.02611407,19.8895028 L15.860725,19.6582295 L22.6945563,11.4608763 C17.1859166,7.24656302 10.2741328,4.70255685 2.79069767,4.65116279 L2.79069767,33.8172941 C2.79069767,35.6931774 4.3237625,37.2093023 6.22060543,37.2093023 L35.3488372,37.2093023 L35.3488372,37.0808172 Z" id="Path" fill="#0057A7" fill-rule="nonzero"></path>
                <path d="M23.255814,12.0930233 L23.255814,20.2790698 L30.6976744,20.4651163 C28.7114127,17.2757475 26.1689978,14.4584718 23.255814,12.0930233" id="Path" fill="#0057A7" fill-rule="nonzero"></path>
            </g>
            <path d="M102.036647,11.5705921 C102.036647,14.7169811 99.3386689,17.0006506 95.6385847,17.0006506 C93.6086773,17.0006506 91.8871104,16.5692908 90.4481887,15.6811971 C90.0370682,15.4274561 89.6516428,15.1483409 89.2919124,14.8184776 L91.7072452,11.545218 C93.6086773,13.2706571 95.5358045,13.1945348 96.2038753,13.1184125 L96.2295703,13.1184125 C96.2809604,13.1184125 96.3066554,13.1184125 96.3580455,13.0930384 C96.4094356,13.0930384 96.4351306,13.0676643 96.4351306,13.0676643 C97.2573715,12.9154196 97.7198821,12.4333116 97.7198821,11.7228367 C97.7198821,10.7332466 96.7434709,10.5048796 94.6364785,9.99739753 L94.6107835,9.99739753 L94.3795282,9.94664932 C94.2510531,9.92127521 94.148273,9.89590111 94.0197978,9.870527 C93.7114575,9.79440468 93.4031171,9.71828237 93.1204718,9.64216005 C91.0134794,9.00780742 89.1120472,7.89134678 89.1120472,5.10019519 C89.1120472,2.15679896 91.7072452,0 95.2531592,0 C96.9490312,0 98.3108677,0.304489265 99.5442291,0.989590111 C99.7754844,1.11646064 100.00674,1.26870527 100.237995,1.4209499 C100.392165,1.52244632 100.546335,1.64931685 100.67481,1.75081327 C100.700505,1.77618738 100.931761,1.95380612 100.957456,1.97918022 L98.7219882,5.02407287 C98.6962932,4.99869876 98.4393429,4.82108003 98.4393429,4.79570592 C96.6663858,3.45087833 95.1760741,3.62849707 95.1760741,3.62849707 C93.8913227,3.62849707 93.300337,4.31359792 93.300337,4.97332466 C93.300337,5.73454782 94.199663,5.98828887 95.5871946,6.31815224 C95.7156698,6.34352635 95.8441449,6.36890046 95.9983151,6.41964867 C96.1781803,6.47039688 96.3837405,6.49577098 96.5636057,6.54651919 C96.7434709,6.5972674 96.8976411,6.62264151 97.0775063,6.67338972 L97.1032013,6.67338972 C99.6727043,7.30774236 102.036647,8.32270657 102.036647,11.5705921 Z M48.1541702,16.9499024 L52.2910699,16.9499024 L52.2910699,10.8093689 L58.5092671,10.8093689 L58.5092671,7.00325309 L52.2910699,7.00325309 L52.2910699,4.31359792 L59.6912384,4.31359792 L59.6912384,0.456733897 L48.1541702,0.456733897 L48.1541702,16.9499024 Z M63.725358,16.9499024 L67.9136479,16.9499024 L67.9136479,0.456733897 L63.725358,0.456733897 L63.725358,16.9499024 Z M103.526959,4.2374756 L107.997894,4.2374756 L107.997894,16.9499024 L112.057709,16.9499024 L112.057709,4.2374756 L116.477254,4.2374756 L116.477254,0.456733897 L103.526959,0.456733897 L103.526959,4.2374756 Z M78.0117944,7.89134678 L77.0867734,7.89134678 L77.0867734,3.7807417 L78.0117944,3.7807417 C79.5021061,3.7807417 80.9410278,4.13597918 80.9410278,5.6584255 C80.9667228,7.43461288 79.5021061,7.89134678 78.0117944,7.89134678 Z M82.7653749,9.51528953 C84.0501264,9.03318152 85.7203033,7.68835394 85.7203033,5.35393624 C85.7203033,2.30904359 83.2792755,0.456733897 78.8083404,0.456733897 L72.5644482,0.456733897 L72.5644482,16.9499024 L77.0867734,16.9499024 L77.0867734,10.9869876 L78.7312553,10.9869876 L81.943134,16.9245283 L87.0050548,16.9245283 L82.7653749,9.51528953 Z M57.3786858,28.418998 L52.1625948,28.418998 L52.1625948,22.2277163 L48,22.2277163 L48,38.7462589 L52.1625948,38.7462589 L52.1625948,32.4788549 L57.3786858,32.4788549 L57.3786858,38.7462589 L61.5412805,38.7462589 L61.5412805,22.2277163 L57.3786858,22.2277163 L57.3786858,28.418998 Z M78.1659646,30.4996747 C78.1659646,32.986337 76.2388374,34.9401431 73.7721146,34.9401431 C71.3310868,34.9401431 69.4039596,32.986337 69.4039596,30.4996747 C69.4039596,27.9876383 71.3053917,26.0338321 73.7721146,26.0338321 C76.2388374,26.0338321 78.1659646,27.9876383 78.1659646,30.4996747 L78.1659646,30.4996747 Z M73.7721146,22.0247235 C69.0699242,22.0247235 65.2413648,25.8308393 65.2413648,30.4996747 C65.2413648,32.7833442 66.1149958,34.914769 67.7337826,36.5133377 C69.3268745,38.1119063 71.485257,39 73.7978096,39 C78.6027801,39 82.3542544,35.2700065 82.3542544,30.5250488 C82.3285594,25.8308393 78.474305,22.0247235 73.7721146,22.0247235 L73.7721146,22.0247235 Z M103.655434,38.7462589 L107.818029,38.7462589 L107.818029,22.2277163 L103.655434,22.2277163 L103.655434,38.7462589 Z M124.288543,25.8562134 L124.288543,22.2277163 L112.417439,22.2277163 L112.417439,26.008458 L119.355097,26.008458 L112.211879,35.7267404 L112.211879,38.7462589 L124.391323,38.7462589 L124.391323,34.9401431 L117.607835,34.9401431 L124.288543,25.8562134 Z M140.039596,30.4996747 C140.039596,32.986337 138.112468,34.9401431 135.645746,34.9401431 C133.204718,34.9401431 131.277591,32.986337 131.277591,30.4996747 C131.277591,27.9876383 133.179023,26.0338321 135.645746,26.0338321 C138.086773,26.0338321 140.039596,27.9876383 140.039596,30.4996747 Z M135.620051,22.0247235 C130.91786,22.0247235 127.089301,25.8308393 127.089301,30.4996747 C127.089301,32.7833442 127.962932,34.914769 129.581719,36.5133377 C131.17481,38.1119063 133.333193,39 135.645746,39 C140.450716,39 144.20219,35.2700065 144.20219,30.5250488 C144.20219,25.8308393 140.347936,22.0247235 135.620051,22.0247235 Z M158.205981,22.2277163 L158.205981,31.7937541 L152.16765,22.2784645 L152.141955,22.2277163 L147.850885,22.2277163 L147.850885,38.7462589 L151.833614,38.7462589 L151.833614,28.7488614 L158.154591,38.6955107 L158.180286,38.7462589 L162.163016,38.7462589 L162.163016,22.2277163 L158.205981,22.2277163 Z M91.4759899,29.6877033 L90.5252738,29.6877033 L90.5252738,25.5770982 L91.4502949,25.5770982 C92.9406066,25.5770982 94.3795282,25.9323357 94.3795282,27.454782 C94.4052233,29.2309694 92.9406066,29.6877033 91.4759899,29.6877033 Z M96.2038753,31.3116461 C97.4886268,30.8295381 99.1588037,29.4847105 99.1588037,27.1502928 C99.1588037,24.1054001 96.7177759,22.2530904 92.2468408,22.2530904 L86.0029486,22.2530904 L86.0029486,38.7462589 L90.5252738,38.7462589 L90.5252738,32.8087183 L92.1697557,32.8087183 L95.3816344,38.7462589 L100.443555,38.7462589 L96.2038753,31.3116461 Z M165.786015,38.0611581 C165.888795,38.3148992 166.094356,38.4671438 166.402696,38.4671438 C166.711036,38.4671438 166.942291,38.3148992 166.942291,38.0611581 C166.942291,37.8835394 166.839511,37.7566688 166.556866,37.6805465 L166.120051,37.5790501 C165.786015,37.5029278 165.55476,37.325309 165.55476,36.9700716 C165.55476,36.5640859 165.888795,36.2849707 166.351306,36.2849707 C166.839511,36.2849707 167.147852,36.5387118 167.224937,36.9193234 L166.916596,36.9193234 C166.839511,36.7163305 166.659646,36.5387118 166.351306,36.5387118 C166.06866,36.5387118 165.8631,36.6909564 165.8631,36.9193234 C165.8631,37.1223162 165.991575,37.2238126 166.248526,37.2745608 L166.659646,37.3760573 C167.045072,37.4775537 167.250632,37.6805465 167.250632,38.0104099 C167.250632,38.4417697 166.890901,38.6955107 166.428391,38.6955107 C165.940185,38.6955107 165.580455,38.4671438 165.50337,38.035784 L165.786015,38.035784 L165.786015,38.0611581 Z M168.740944,38.6955107 L167.970093,36.8685751 L167.970093,38.6955107 L167.661752,38.6955107 L167.661752,36.3103448 L168.021483,36.3103448 L168.843724,38.2641509 L169.665965,36.3103448 L170,36.3103448 L170,38.6955107 L169.69166,38.6955107 L169.69166,36.8685751 L168.946504,38.6955107 L168.740944,38.6955107 Z" id="Shape" fill="#FFFFFF" fill-rule="nonzero"></path>
        </g>
    </g>
</svg>