<?xml version="1.0" encoding="UTF-8"?>
<svg width="40px" height="40px" viewBox="0 0 40 40" version="1.1" xmlns="http://www.w3.org/2000/svg" xmlns:xlink="http://www.w3.org/1999/xlink">
    <title>UKG Pro mobile app logo</title>
    <defs>
        <rect id="path-1" x="0" y="0" width="40" height="40"></rect>
        <radialGradient cx="50%" cy="50%" fx="50%" fy="50%" r="50%" id="radialGradient-3">
            <stop stop-color="#30CEBB" stop-opacity="0.588450612" offset="0%"></stop>
            <stop stop-color="#30CEBB" stop-opacity="0" offset="99.9972684%"></stop>
        </radialGradient>
    </defs>
    <g id="UKG-Pro-mobile-app-logo" stroke="none" stroke-width="1" fill="none" fill-rule="evenodd">
        <g id="Gradient-BG">
            <mask id="mask-2" fill="white">
                <use xlink:href="#path-1"></use>
            </mask>
            <use id="Mask" fill="#005151" xlink:href="#path-1"></use>
            <circle id="Oval" fill="url(#radialGradient-3)" mask="url(#mask-2)" cx="30.3515625" cy="-0.0078125" r="30.3515625"></circle>
        </g>
        <g id="Icon" transform="translate(7.500000, 7.500000)">
            <path d="M12.5,0 C19.4035594,0 25,5.59644063 25,12.5 C25,15.7859299 23.7232185,18.8771661 21.4836841,21.1916177 C20.5235645,22.1838554 18.9408662,22.2098923 17.9486285,21.2497726 C16.9563908,20.289653 16.930354,18.7069547 17.8904736,17.7147171 C19.2365122,16.3236505 20,14.475158 20,12.5 C20,8.35786438 16.6421356,5 12.5,5 C8.35786438,5 5,8.35786438 5,12.5 C5,14.47517 5.76349683,16.3236652 7.10953465,17.7146919 C8.06966816,18.7069161 8.04365348,20.2896148 7.05142925,21.2497483 C6.05920501,22.2098818 4.47650635,22.1838671 3.51637285,21.1916429 C1.27680551,18.8772221 0,15.7859599 0,12.5 C0,5.59644063 5.59644063,0 12.5,0 Z" id="Path" fill="#FFFFFF" fill-rule="nonzero"></path>
            <path d="M17.8904898,17.7146666 C18.8506187,16.7224379 20.4333173,16.6964158 21.425546,17.6565447 C22.4177747,18.6166736 22.4437967,20.1993721 21.4836678,21.1916008 C19.1453918,23.608052 15.9304037,25 12.5,25 C9.06961674,25 5.85464611,23.6080687 3.51637285,21.1916429 C2.55623934,20.1994187 2.58225401,18.61672 3.57447825,17.6565865 C4.56670248,16.696453 6.14940114,16.7224677 7.10953465,17.7146919 C8.51529086,19.167433 10.4382871,20 12.5,20 C14.5617252,20 16.4847319,19.167423 17.8904898,17.7146666 Z" id="Path" fill="#30CEBB" fill-rule="nonzero"></path>
            <path d="M15,12.5 C15,13.8808764 13.8806074,15 12.4998267,15 C11.1193926,15 10,13.8808764 10,12.5 C10,11.1191236 11.1193926,10 12.4998267,10 C13.8806074,10 15,11.1191236 15,12.5" id="Fill-617" fill="#30CEBB" transform="translate(12.500000, 12.500000) rotate(-315.000000) translate(-12.500000, -12.500000) "></path>
            <path d="M21.4551444,17.6852355 C22.4315038,18.6615949 22.431694,20.2444649 21.455267,21.220892 C20.4788399,22.197319 18.8959699,22.1971288 17.9196105,21.2207694 C16.9434962,20.2446551 16.943306,18.6617851 17.919733,17.685358 C18.8961601,16.708931 20.4790301,16.7091212 21.4551444,17.6852355 Z M7.09576939,17.6852355 C8.07212878,18.6615949 8.07231905,20.2444649 7.09589195,21.220892 C6.11946486,22.197319 4.53659488,22.1971288 3.56023548,21.2207694 C2.58412122,20.2446551 2.58393095,18.6617851 3.56035805,17.685358 C4.53678514,16.708931 6.11965512,16.7091212 7.09576939,17.6852355 Z" id="Combined-Shape" fill="#56F5EC"></path>
        </g>
    </g>
</svg>