<?xml version="1.0" encoding="UTF-8"?>
<svg width="70px" height="60px" viewBox="0 0 70 60" version="1.1" xmlns="http://www.w3.org/2000/svg" xmlns:xlink="http://www.w3.org/1999/xlink">
    <title>icon-time-clock-entry</title>
    <g id="icon-time-clock-entry" stroke="none" stroke-width="1" fill="none" fill-rule="evenodd">
        <rect id="image-area" fill-opacity="0" fill="#FFFFFF" x="0" y="0" width="70" height="60"></rect>
        <g id="Group" transform="translate(11.000000, 6.000000)" fill-rule="nonzero">
            <g id="UKG_01Time-&amp;-Attendance" transform="translate(4.000000, 4.000000)">
                <circle id="Oval" fill="#00D1BA" cx="20.028494" cy="20.0001533" r="9.99950483"></circle>
                <path d="M27.1656406,25.3623878 L23.4158263,21.6125735 C23.6593812,21.1097471 23.7874967,20.5588504 23.7908077,20.0001533 C23.7863525,18.4149132 22.7855184,17.0037371 21.2909315,16.4753279 L21.2909315,7.50077229 C21.2909315,6.81045053 20.7313151,6.25083418 20.0409934,6.25083418 C19.3506716,6.25083418 18.7910553,6.81045053 18.7910553,7.50077229 L18.7910553,16.4753279 C17.0849281,17.094399 16.0670798,18.8465005 16.3744267,20.635259 C16.6817735,22.4240176 18.2260772,23.7358868 20.0409934,23.7499676 C20.5996905,23.7466567 21.1505871,23.6185412 21.6534135,23.3749862 L25.4032279,27.1248005 C25.6379245,27.3614296 25.9574035,27.4945301 26.2906839,27.4945301 C26.6239643,27.4945301 26.9434433,27.3614296 27.17814,27.1248005 C27.6593301,26.6338477 27.6537458,25.8464662 27.1656406,25.3623878 Z" id="Path" fill="#005352"></path>
                <path d="M20.028494,39.9992443 C10.7376696,40.0119463 2.66160334,33.6246385 0.533611066,24.5807881 C-1.59438121,15.5369378 2.78619545,6.21861732 11.1079211,2.08721771 C19.4296468,-2.04418189 29.5006504,0.0995145206 35.4183996,7.26190414 C41.3361488,14.4242938 41.5419594,24.7188646 35.9152073,32.1120536 C35.6739968,32.5293519 35.2143416,32.7707769 34.7338652,32.7325307 C34.2533887,32.6942844 33.837715,32.3831827 33.6655581,31.9329801 C33.4934012,31.4827775 33.5954407,30.9737029 33.9278057,30.6246272 C39.5236643,23.3044217 38.4844823,12.8990236 31.5514552,6.8300717 C24.618428,0.761119852 14.1670229,1.10802287 7.65169325,7.62335256 C1.13636356,14.1386823 0.789460537,24.5900873 6.85841239,31.5231145 C12.9273642,38.4561416 23.3327624,39.4953236 30.6529679,33.899465 C31.0061643,33.6051689 31.4924064,33.5285154 31.9190118,33.6998798 C32.3456171,33.8712443 32.6437174,34.2629628 32.6951848,34.7198096 C32.7466521,35.1766564 32.5431781,35.6248813 32.165393,35.8868666 C28.6874927,38.565172 24.4181354,40.011741 20.028494,39.9992443 Z" id="Path" fill="#005352"></path>
            </g>
        </g>
    </g>
</svg>