<?xml version="1.0" encoding="UTF-8"?>
<svg width="1285px" height="1285px" viewBox="0 0 1285 1285" version="1.1" xmlns="http://www.w3.org/2000/svg" xmlns:xlink="http://www.w3.org/1999/xlink">
    <title>Fill 1</title>
    <g id="background" stroke="none" stroke-width="1" fill="none" fill-rule="evenodd" opacity="0.0639183408">
        <g id="Artboard" fill="#FFFFFF">
            <path d="M198.961964,1086.03193 C464.244583,1351.31306 895.911443,1351.33232 1161.19406,1086.03193 L1237.92457,1009.30186 C1300.69181,946.534966 1300.69181,844.78673 1237.92457,782.039096 C1175.17658,719.272202 1073.40851,719.272202 1010.66052,782.019837 L931.11811,861.561804 C791.138868,1001.54026 594.208799,1032.37481 423.414094,861.581063 C263.655177,701.803785 283.454112,493.858356 423.433354,353.879901 L502.975768,274.337934 C565.723755,211.5903 565.723755,109.842064 502.975768,47.0751703 C440.208521,-15.6917234 338.459714,-15.6917234 275.692467,47.0751703 L198.961964,123.805242 C-66.3206547,389.08637 -66.3206547,820.750804 198.961964,1086.03193" id="Fill-1"></path>
        </g>
    </g>
</svg>