<svg xmlns="http://www.w3.org/2000/svg" viewBox="0 0 208 154" fill="none"><g clip-path="url(#a)"><path fill="#EAEAEA" d="M5.777 66.718c5.38-5.098 13.892-5.008 19.172.26l41.238 41.182-41.238 41.193c-5.37 5.358-14.074 5.358-19.433 0l-.26-.271c-5.11-5.381-5.019-13.871.26-19.15l21.807-21.772L5.517 86.388C.136 81.03.136 72.336 5.505 66.978l.272-.26ZM17.375 35.835c8.753 0 15.849-7.086 15.849-15.826S26.128 4.183 17.373 4.183c-8.752 0-15.848 7.085-15.848 15.826 0 8.74 7.096 15.826 15.849 15.826Z"/><mask id="b" width="33" height="32" x="1" y="4" maskUnits="userSpaceOnUse" style="mask-type:luminance"><path fill="#fff" d="M17.375 35.835c8.753 0 15.849-7.086 15.849-15.826S26.128 4.183 17.373 4.183c-8.752 0-15.848 7.085-15.848 15.826 0 8.74 7.096 15.826 15.849 15.826Z"/></mask><g mask="url(#b)"><path fill="#EAEAEA" d="M17.375 4.194c8.75 0 15.849 7.088 15.849 15.826Z"/></g><path fill="#EAEAEA" d="M196.187 76.496c6.249 0 11.316-5.06 11.316-11.304 0-6.243-5.067-11.304-11.316-11.304-6.25 0-11.316 5.06-11.316 11.304 0 6.243 5.066 11.305 11.316 11.305ZM175.873 101.875a9.415 9.415 0 0 1 13.294 0l13.237 13.215a9.367 9.367 0 0 1 0 13.271l-13.237 13.215a9.417 9.417 0 0 1-13.294 0l-13.237-13.215a9.367 9.367 0 0 1 0-13.271l13.237-13.215ZM125.083 92.526c-6.975 6.975-18.291 6.975-25.277 0l-.282-.294c-6.693-6.986-6.591-18.076.282-24.948l61.349-61.259c6.975-6.975 18.29-6.975 25.276 0l.283.294c6.692 6.986 6.59 18.076-.283 24.949l-61.337 61.258h-.011Z"/><path fill="#9DF2E9" d="M104.497 153.852c39.957 0 72.348-32.391 72.348-72.348 0-39.956-32.391-72.347-72.348-72.347-39.956 0-72.347 32.39-72.347 72.347 0 39.957 32.39 72.348 72.347 72.348Z"/><path stroke="#00D8C3" stroke-linecap="round" stroke-miterlimit="10" stroke-width="2" d="M154.474 133.403c29.052-29.053 27.842-79.39-2.996-106.906M134.838 147.205c6.218-1.955 14.187-8.354 19.636-13.802"/><path fill="#0067DC" d="M70.234 63.112a16.537 16.537 0 0 0-9.925 12.062l-7.28 36.4 17.928 9.021 12.899-63.078-13.622 5.606v-.01Z"/><path fill="#00D4B9" d="M107.595 43.94h13.802a3.764 3.764 0 0 1 3.482 5.2l-4.228 10.197h-11.394l-1.662-15.397Z"/><path fill="#0067DC" d="m83.856 57.517 25.208-.046 8.366.046 16.515 5.618-5.652 70.754H72.981l2.555-72.36 8.32-4.013Z"/><path fill="#005754" d="M66.526 143.916a74.037 74.037 0 0 0 34.015 8.241c12.254 0 24.621-3.188 35.077-8.784v-9.484H66.481l.045 10.027Z"/><path stroke="#00998D" stroke-linecap="round" stroke-linejoin="round" stroke-width="2" d="M47.93 130.362c23.604 23.603 59.133 28.035 87.202 13.282"/><path fill="#0067DC" d="m135.63 133.889.327-2.781a76.688 76.688 0 0 0-5.946-39.995 24.526 24.526 0 0 0-.361-16.493l-2.555-6.715H74.168l-2.555 6.715a24.658 24.658 0 0 0-.362 16.493 76.806 76.806 0 0 0-5.946 39.995l.328 2.781.904 4.736h55.844c4.827-1.345 9.337-2.95 13.237-4.736h.012Z"/><path fill="#0067DC" d="m55.64 123.613-16.131 2.182 9.405 9.179a12.776 12.776 0 0 0 8.942 3.64c7.065 0 12.796-5.731 12.796-12.797v-5.234l-15.012 3.03Z"/><path stroke="#2C49B2" stroke-linecap="round" stroke-miterlimit="10" stroke-width="2" d="M70.652 125.829c0 7.065-5.731 12.796-12.796 12.796a12.804 12.804 0 0 1-8.942-3.64l-9.405-9.179"/><path fill="#00D4B9" d="m70.573 61.8-7.958 71.603c-.305 2.792 1.876 5.234 4.68 5.234h17.08c2.6 0 4.715-2.114 4.715-4.714V52.961l-13.803 3.448a6.27 6.27 0 0 0-4.714 5.392Z"/><path stroke="#00998D" stroke-linecap="round" stroke-linejoin="round" stroke-width="2" d="M84.613 107.063H71.817M85.517 93.543h-13.09M84.613 80.012H74.88M84.613 120.595H70.957M78.531 55.606l-3.244.814a6.27 6.27 0 0 0-4.714 5.392l-7.031 63.305"/><path fill="#00D4B9" d="M93.136 43.94H79.334a3.763 3.763 0 0 0-3.482 5.2l4.228 10.197h11.395l1.662-15.397Z"/><path stroke="#00998D" stroke-linecap="round" stroke-linejoin="round" stroke-width="2" d="M89.09 43.94h-9.767a3.763 3.763 0 0 0-3.482 5.2l4.228 10.197"/><path fill="#0067DC" d="M117.43 78.96V57.518l16.481 5.606a17.584 17.584 0 0 1 10.276 9.236l20.438 43.205s.452 4.737-1.243 7.71c-3.787 6.636-17.612.882-17.612.882l-5.46-7.676s-4.466-5.426-4.5-5.381l-18.38-32.127v-.011Z"/><path fill="#FF9A7D" d="M89.09 32.805v29.177a16.63 16.63 0 0 0 21.421 0V32.805H89.09Z"/><path fill="#00D4B9" d="m138.116 133.403-7.958-71.602a6.295 6.295 0 0 0-4.714-5.392l-13.802-3.448-1.119 4.51v81.154h22.914c2.803 0 4.996-2.442 4.679-5.234v.012Z"/><path stroke="#00998D" stroke-linecap="round" stroke-linejoin="round" stroke-width="2" d="M128.813 93.543h-15.611M127.027 66.492h-12.932M127.92 80.16h-14.718M110.975 43.94h10.422a3.764 3.764 0 0 1 3.482 5.2l-4.228 10.197M122.2 55.606l3.244.814a6.27 6.27 0 0 1 4.714 5.392l7.959 71.602"/><path fill="#EAEAEA" d="m52.735 80.17-.407-1.797a3.53 3.53 0 0 0-3.437-2.758h-4.307c-1.164-1.764-3.165-2.973-5.256-2.973s-3.663 1.22-4.205 2.973h-4.104a2.229 2.229 0 0 0-2.17 2.724l.407 1.786h6.658c1.153 1.786 3.176 3.019 5.268 3.019 2.091 0 3.674-1.221 4.205-2.985h7.348v.011Z"/><path stroke="#CCC" stroke-linecap="round" stroke-linejoin="round" stroke-width="2" d="M31.03 75.615h4.104c.542-1.764 2.114-2.973 4.205-2.973 2.092 0 4.092 1.22 5.257 2.973h4.307a3.518 3.518 0 0 1 3.436 2.758l.407 1.797"/><path fill="#B35900" d="m59.404 80.182-35.993-.057a1.946 1.946 0 0 0-1.91 2.329l9.01 45.127a2.674 2.674 0 0 0 2.61 2.148h35.994a1.946 1.946 0 0 0 1.91-2.329l-9.01-45.07a2.663 2.663 0 0 0-2.61-2.137v-.011Z"/><path stroke="#874300" stroke-linecap="round" stroke-linejoin="round" stroke-width="2" d="M33.551 129.717h35.564a1.945 1.945 0 0 0 1.91-2.328l-9.01-45.07"/><path fill="#FF9A7D" d="M31.924 93.656h-7.767a2.69 2.69 0 0 0-2.656 3.087l1.243 8.41a2.689 2.689 0 0 0 2.657 2.295h6.523a2.69 2.69 0 0 0 2.69-2.691v-8.41a2.69 2.69 0 0 0-2.69-2.69Z"/><path stroke="#F27E61" stroke-linecap="round" stroke-miterlimit="10" stroke-width="2" d="M25.4 107.437h6.524a2.69 2.69 0 0 0 2.69-2.691v-8.41a2.69 2.69 0 0 0-2.69-2.69h-7.767"/><path fill="#D7730F" d="M104.226 93.453a25.975 25.975 0 0 1-18.358-7.574l-4.612-4.6-5.03-5.031c-.69-.69-1.73-.961-2.635-.6a3.951 3.951 0 0 0-2.498 3.675c0 1.085.44 2.09 1.198 2.826.498.486 1.176.746 1.854.915a9.216 9.216 0 0 1 5.359 3.674l6.601 9.45a64.013 64.013 0 0 0 15.205 15.386l3.052-18.132h-.136v.011Z"/><path stroke="#B35900" stroke-linecap="round" stroke-linejoin="round" stroke-width="2" d="M104.226 93.453a25.975 25.975 0 0 1-18.358-7.574l-4.612-4.6-5.03-5.031c-.69-.69-1.73-.961-2.635-.6"/><path fill="#D7730F" d="M123.534 105.47c-3.821-1.741-5.505-6.286-3.764-10.095l.045-.102a29.523 29.523 0 0 0 3.12-13.192v-6.557h-8.75c-1.707 0-3.38.453-4.917 1.199-1.447.7-3.03 1.062-4.635 1.062h-1.119l-.712 3.651c-.17.882-.125 1.81.248 2.623.328.701.86 1.323 1.527 1.764l3.38 2.227a6.092 6.092 0 0 0 1.752.79l-.272.216-2.475 1.978a23.449 23.449 0 0 0-8.829 18.336c0 5.946 2.25 11.62 6.229 15.916 2.136 2.306 4.205 4.669 6.036 7.212l.351.498 16.391 11.146-18.03 3.527-.86-.181c-2.351-.486-4.408 1.662-3.82 3.99l.169.701h38.616v-16.086a33.619 33.619 0 0 0-19.692-30.601l.011-.022Z"/><path stroke="#B35900" stroke-linecap="round" stroke-linejoin="round" stroke-width="1.96" d="M122.946 75.502v6.556c0 4.578-1.062 9.1-3.12 13.192l-.045.114c-1.752 3.809-.057 8.353 3.764 10.094a33.632 33.632 0 0 1 19.692 30.601v9.202"/><path fill="#D7730F" d="M123.206 122.415c-6.85 0-12.401 5.55-12.401 12.401 0 6.85 5.551 12.401 12.401 12.401h8.806"/><path stroke="#B35900" stroke-linecap="round" stroke-linejoin="round" stroke-width="2" d="M123.206 122.415c-6.85 0-12.401 5.55-12.401 12.401 0 6.85 5.551 12.401 12.401 12.401h8.806"/><path fill="#D7730F" d="m114.197 75.502 1.989-4.51c.78 0 1.458.542 1.617 1.3l.7 3.21"/><path stroke="#B35900" stroke-linecap="round" stroke-linejoin="round" stroke-width="2" d="M98.133 109.347c0 4.013 1.029 7.902 2.917 11.338M109.449 89.033l-2.476 1.978a23.45 23.45 0 0 0-8.829 18.336M103.062 84.037a4.33 4.33 0 0 0 1.526 1.763l3.38 2.227a6.104 6.104 0 0 0 3.38 1.006h2.69"/><path fill="#D7730F" d="m110.76 116.084-11.62 31.562a4.516 4.516 0 0 1-4.511 4.511h-2.182a2.379 2.379 0 0 1-2.385-2.386c0-.78.384-1.514 1.029-1.955a9.911 9.911 0 0 0 4.137-6.613l2.52-16.211a116.147 116.147 0 0 0 1.391-17.929"/><path fill="#FFA36E" d="m95.624 138.625-.396 2.578a9.911 9.911 0 0 1-4.137 6.613 2.37 2.37 0 0 0-1.03 1.955 2.379 2.379 0 0 0 2.386 2.386h2.182a4.516 4.516 0 0 0 4.51-4.511l3.324-9.021h-6.84ZM122.743 71.24l-5.212 5.211c1.3.746 2.985 2.95 3.358 5.46.056.385.531.554.802.272l1.244-1.278c2.08-2.08 2.249-4.759 2.249-7.71a2.212 2.212 0 0 0-1.865-2.181c-.215-.034-.441.068-.588.215l.012.011Z"/><path stroke="#D7730F" stroke-linecap="round" stroke-linejoin="round" stroke-width="2" d="m123.387 71.873-5.11 5.11M102.463 138.625l-3.482 9.123a4.395 4.395 0 0 1-4.397 4.397h-2.126"/><path stroke="#B35900" stroke-linecap="round" stroke-linejoin="round" stroke-width="1.95" d="m110.76 116.084-8.297 22.541"/><path fill="#FF9A7D" d="m111.495 114.468-4.522-4.522a2.926 2.926 0 0 0-2.883-.746l-4.295 1.221a1.1 1.1 0 0 0-.724 1.447l.238.61h5.381l6.794 2.001.011-.011Z"/><path fill="#FF9A7D" d="m111.495 114.468-3.03-1.379a6.976 6.976 0 0 0-2.871-.622h-8.083a2.079 2.079 0 0 0-2.012 2.589l1.594 6.262a6.167 6.167 0 0 0 1.956 3.154 6.14 6.14 0 0 0 4.103 1.492l10.106-.079"/><path stroke="#F27E61" stroke-linecap="round" stroke-miterlimit="10" stroke-width="2" d="M105.922 111.777H99.93"/><path fill="#0067DC" d="m111.495 114.468 42.877-4.951c9.1-.792 14.617 9.8 8.75 16.798a10.261 10.261 0 0 1-4.465 3.086c-1.244.429-2.567.554-3.889.486l-41.498-4.002-1.764-11.428-.011.011Z"/><path stroke="#2C49B2" stroke-linecap="round" stroke-miterlimit="10" stroke-width="2" d="m113.258 115.157 39.249-4.521"/><path stroke="#B35900" stroke-linecap="round" stroke-linejoin="round" stroke-width="2" d="m117.712 145.939-8.738 1.707-.859-.181c-2.352-.486-4.409 1.662-3.821 3.991"/><path fill="#FF6B4D" d="m104.554 79.662.056-.102a.85.85 0 0 1 .611-.44.817.817 0 0 0 .701-.815v-.622c-.43.057-.859.08-1.289.08h-1.119l-.464 2.35h.769c.305 0 .588-.169.735-.451Z"/><path fill="#D7730F" d="M143.237 152.145h-4.962a3.436 3.436 0 1 1 0-6.873h4.962c4.217 0 8.094-2.114 10.378-5.663 2.283-3.55 2.6-7.947.848-11.791l-5.494-12.061c-2.148-4.873-1.673-10.457 1.254-14.956a16.164 16.164 0 0 1 13.577-7.37 3.435 3.435 0 1 1 0 6.872c-3.165 0-6.082 1.594-7.823 4.251-1.684 2.589-1.955 5.663-.734 8.433l.067.147 5.404 11.847a19.11 19.11 0 0 1-1.323 18.347 19.118 19.118 0 0 1-16.142 8.806l-.012.011Z"/><path fill="#FFA36E" d="M163.8 93.43c-3.052 0-5.98.86-8.501 2.408l2.973 6.297a9.22 9.22 0 0 1 5.517-1.843 3.434 3.434 0 0 0 3.436-3.436c0-1.9-1.537-3.437-3.436-3.437l.011.011Z"/><path stroke="#B35900" stroke-linecap="round" stroke-linejoin="round" stroke-width="2" d="M164.456 99.422a9.476 9.476 0 0 0-7.959 4.329c-1.718 2.634-1.989 5.754-.746 8.58l.068.147 5.494 12.051a19.433 19.433 0 0 1-1.345 18.652 19.445 19.445 0 0 1-16.414 8.964h-5.042"/><path stroke="#005754" stroke-linecap="round" stroke-linejoin="round" stroke-width="1.33" d="M113.202 80.905a2.106 2.106 0 0 0-1.718-.678"/><path fill="#B35900" d="m90.66 25.627 10.017-12.525-10.061-.712c-4.307-.306-7.755 3.526-7.009 7.777l1.345 7.62c.701 3.978 2.94 7.528 6.218 9.88"/><path fill="#FF9A7D" d="M102.983 5.709c-7.744.09-13.939 6.432-13.86 14.164l.159 14.04c.09 7.744 6.432 13.938 14.164 13.86 7.744-.091 13.961-4.5 13.882-12.232l-.181-15.973c-.09-7.744-6.432-13.938-14.164-13.86Z"/><path fill="#B35900" d="M116.853.633 116.22 0c-2.883 2.883-6.873 3.369-10.954 3.369H97.93a8.838 8.838 0 0 0-8.84 8.84v.18l-2.521 9.406 4.522 1.322v12.797c0 7.042 5.324 13.113 12.344 13.61 6.624.464 12.141-3.934 13.588-9.79.26-1.04.327-2.124.305-3.21v-.452a.573.573 0 0 0-.486-.565 4.495 4.495 0 0 1-2.883-1.492l-.328-.373a7.61 7.61 0 0 0-11.541.124l-.057.068c-.588.69-1.345 1.243-2.227 1.492-3.176.904-6.059-1.447-6.059-4.476l-.136-18.483a42.754 42.754 0 0 0 15.261 4.34 9.625 9.625 0 0 0 6.534-1.774l.17-.124c5.041-3.64 5.686-9.79 1.288-14.187l-.011.011Z"/><path stroke="#B35900" stroke-linecap="round" stroke-linejoin="round" stroke-width="2" d="M93.6 12.593c5.098 1.922 10.603 3.12 16.244 3.527 2.646.192 5.291-.35 7.439-1.537 1.333-.735 2.385-1.64 3.131-2.657"/><path stroke="#874300" stroke-linecap="round" stroke-linejoin="round" stroke-width="2" d="m103.638 21.896-3.798.046M115.35 21.76l-3.799.046"/><path stroke="#F27E61" stroke-linecap="round" stroke-miterlimit="10" stroke-width="2" d="M108.59 30.872h.226a1.82 1.82 0 0 0 1.718-2.362l-1.797-5.754"/><path stroke="#874300" stroke-linecap="round" stroke-linejoin="round" stroke-width="2" d="M92.876 31.02V12.377"/><path fill="#FFC000" d="M93.77 16.934 80.95 24.97a1.351 1.351 0 0 0-.43 1.854 1.349 1.349 0 0 0 1.855.43l12.819-8.038-1.424-2.272v-.011Z"/><path stroke="#FF9700" stroke-linecap="round" stroke-linejoin="round" stroke-width="1.66" d="M81.131 26.396c.215.328.566.373.87.214L94.64 18.71"/><path fill="#FF9A7D" d="m88.897 27.775 2.205-4.364a2.672 2.672 0 0 0-1.922-.983 2.68 2.68 0 0 0-2.815 2.532 2.68 2.68 0 0 0 2.532 2.815Z"/><path stroke="#874300" stroke-linecap="round" stroke-linejoin="round" stroke-width="2" d="M103.503 48.71c6.002.419 11.044-3.425 12.593-8.636.339-1.153.452-2.351.441-3.55v-.305"/><path fill="#fff" d="M103.932 34.93a3.904 3.904 0 0 0 3.821 3.132 3.904 3.904 0 0 0 3.821-3.132h-7.642Z"/><path stroke="#F27E61" stroke-linecap="round" stroke-linejoin="round" stroke-width="2" d="M90.3 22.744a2.663 2.663 0 0 0-1.64-.294 2.666 2.666 0 0 0-2.227 2.024 2.684 2.684 0 0 0 2.464 3.3l.204 34.208"/><path stroke="#00998D" stroke-linecap="round" stroke-linejoin="round" stroke-width="2" d="M84.613 66.492H74.53"/><path fill="#2C49B2" d="m116.774 113.857-5.279.611 1.763 11.417 5.46.532-1.944-12.56Z"/><path fill="#fff" d="M93.77 16.934c0 .95.53 1.82 1.379 2.25l.045.022 1.64-2.543-3.064.26v.01Z"/><path fill="#005754" d="M95.296 16.798c0 .475.271.905.69 1.13h.022l.814-1.254-1.526.136v-.012Z"/><path fill="#005352" d="M113.496 26.814a1.164 1.164 0 1 0 0-2.328 1.164 1.164 0 0 0 0 2.328ZM102.18 26.882a1.164 1.164 0 1 0 0-2.328 1.164 1.164 0 0 0 0 2.328Z"/><path stroke="#9DF2E9" stroke-linecap="round" stroke-linejoin="round" stroke-width="2" d="M39.825 152.168h129.333"/><path stroke="#00D8C3" stroke-linecap="round" stroke-linejoin="round" stroke-width="2" d="M53.91 152.168h101.174"/><mask id="c" width="37" height="37" x="144" y="20" maskUnits="userSpaceOnUse" style="mask-type:luminance"><path fill="#fff" d="M162.15 56.895c10.001 0 18.109-8.098 18.109-18.087 0-9.99-8.108-18.087-18.109-18.087-10.002 0-18.11 8.098-18.11 18.087 0 9.989 8.108 18.087 18.11 18.087Z"/></mask><g mask="url(#c)"><path fill="#EB00BA" d="M144.04 20.72h36.219v36.175H144.04V20.72Z"/></g><path stroke="#990F99" stroke-linecap="round" stroke-miterlimit="10" stroke-width="1.62" d="M174.957 26.023c7.077 7.065 7.077 18.516 0 25.581-7.076 7.066-18.539 7.066-25.615 0"/><mask id="d" width="19" height="19" x="153" y="29" maskUnits="userSpaceOnUse" style="mask-type:luminance"><path fill="#fff" d="M165.202 29.685v6.082h6.081v6.082h-6.081v6.082h-6.093v-6.082h-6.093v-6.082h6.093v-6.082h6.093Z"/></mask><g mask="url(#d)"><path fill="#fff" d="M153.016 29.685h18.267v18.246h-18.267V29.685Z"/></g><mask id="e" width="23" height="24" x="53" y="3" maskUnits="userSpaceOnUse" style="mask-type:luminance"><path fill="#fff" d="M64.672 26.317c6.25 0 11.316-5.062 11.316-11.305 0-6.243-5.066-11.304-11.316-11.304-6.25 0-11.316 5.061-11.316 11.304s5.067 11.305 11.316 11.305Z"/></mask><g mask="url(#e)"><path fill="#00998D" d="M53.356 3.708H76v22.608H53.357V3.708Z"/></g><path stroke="#005653" stroke-linecap="round" stroke-linejoin="round" stroke-width="1.62" d="M72.676 7.02c4.42 4.42 4.42 11.576 0 15.984-4.42 4.409-11.587 4.409-16.007 0"/><mask id="f" width="16" height="12" x="57" y="9" maskUnits="userSpaceOnUse" style="mask-type:luminance"><path fill="#fff" d="M71.828 9.857a1.665 1.665 0 0 1 0 2.363l-7.958 7.947a1.667 1.667 0 0 1-1.187.486c-.43 0-.86-.158-1.187-.486l-3.98-3.98a1.665 1.665 0 0 1 0-2.362 1.678 1.678 0 0 1 2.374 0l2.793 2.792 6.782-6.77a1.678 1.678 0 0 1 2.374 0l-.011.01Z"/></mask><g mask="url(#f)"><path fill="#fff" d="M57.03 9.36h15.295v11.304H57.031V9.36Z"/></g><mask id="g" width="42" height="41" x="16" y="24" maskUnits="userSpaceOnUse" style="mask-type:luminance"><path fill="#fff" d="M37.36 64.989c11.251 0 20.371-9.11 20.371-20.348s-9.12-20.348-20.37-20.348c-11.25 0-20.37 9.11-20.37 20.348s9.12 20.348 20.37 20.348Z"/></mask><g mask="url(#g)"><path fill="#FFC000" d="M16.99 24.293h40.741v40.696h-40.74V24.293Z"/></g><path stroke="#FF9600" stroke-linecap="round" stroke-linejoin="round" stroke-width="1.62" d="M51.763 30.262c7.958 7.947 7.958 20.834 0 28.78-7.959 7.948-20.857 7.948-28.815 0"/><mask id="h" width="21" height="21" x="27" y="35" maskUnits="userSpaceOnUse" style="mask-type:luminance"><path fill="#fff" d="M36.864 35.982a.849.849 0 0 1 .994 0 8.003 8.003 0 0 0 8.366.44c.542-.293 1.198.125 1.198.735v4.454c0 4.986-2.623 9.598-6.896 12.164l-3.165 1.899-3.165-1.9A14.168 14.168 0 0 1 27.3 41.612v-4.454c0-.621.656-1.04 1.198-.734a7.979 7.979 0 0 0 8.366-.441Z"/></mask><g mask="url(#h)"><path fill="#fff" d="M27.3 35.835h20.122v19.839H27.3v-19.84Z"/></g></g><defs><clipPath id="a"><path fill="#fff" d="M0 0h208v153.852H0z"/></clipPath></defs></svg>