<?xml version="1.0" encoding="UTF-8"?>
<svg width="174px" height="44px" viewBox="0 0 174 44" version="1.1" xmlns="http://www.w3.org/2000/svg" xmlns:xlink="http://www.w3.org/1999/xlink">
    <title>Navigation (classic) / Ω - Atoms / Brand marks / Yamaha - on light</title>
    <g id="Navigation-(classic)-/-Ω---Atoms-/-Brand-marks-/-Yamaha---on-light" stroke="none" stroke-width="1" fill="none" fill-rule="evenodd">
        <g id="yamaha-white" transform="translate(2.000000, 3.000000)" fill="#4B1E78" fill-rule="nonzero">
            <path d="M18.506558,0 C8.28566823,0 0,8.28566823 0,18.506558 C0,28.7274477 8.28566823,37.0131159 18.506558,37.0131159 C28.7274477,37.0131159 37.0131159,28.7274477 37.0131159,18.506558 C37.0131159,13.5983136 35.0633234,8.89109819 31.5926706,5.42044533 C28.1220177,1.94979247 23.4148023,0 18.506558,0 Z M18.506558,34.9521624 C9.44351348,34.9388313 2.10476304,27.5856929 2.10919882,18.5226397 C2.11363861,9.45958655 9.45958655,2.11363861 18.5226397,2.10919882 C27.5856929,2.10476304 34.9388313,9.44351348 34.9521624,18.506558 C34.9585546,22.8701606 33.2279581,27.0568853 30.1424217,30.1424217 C27.0568853,33.2279581 22.8701606,34.9585546 18.506558,34.9521624 Z" id="Shape"></path>
            <path d="M31.9390287,25.9610067 L29.2513293,22.82134 C29.2173187,22.7845664 29.1788559,22.7521767 29.1368309,22.7249202 C29.0011083,22.6531369 28.8386648,22.6531369 28.7029422,22.7249202 L28.7029422,22.7249202 C28.276641,22.9246743 27.7797919,22.9044406 27.371145,22.6706842 C27.0180549,22.4567127 26.7742985,22.1009601 26.7022333,21.6944346 L26.7022333,21.6944346 C26.504867,20.6502232 25.8624354,19.7437785 24.9425736,19.2116271 L23.7373272,18.5186104 L30.5771003,14.5714286 L29.7334279,13.101028 L22.0499823,17.5303084 L21.1219426,16.9939738 L21.1219426,15.9273307 L28.8114144,11.4920241 L27.9677419,10.0216235 L21.1219426,13.9748316 L21.1219426,12.5827721 C21.1330956,11.526478 20.6817614,10.5181314 19.886565,9.82275789 L19.886565,9.82275789 C19.5481272,9.53534584 19.3633415,9.10636228 19.3869885,8.66298135 C19.4106355,8.21960041 19.6400014,7.81270494 20.0070897,7.56292095 C20.1315204,7.47380224 20.2055167,7.33029426 20.2059553,7.17724211 C20.2151288,7.12744244 20.2151288,7.07638598 20.2059553,7.02658632 L18.7777384,3.13364055 C18.7416795,3.01401721 18.6314979,2.93215144 18.506558,2.93215144 C18.381618,2.93215144 18.2714364,3.01401721 18.2353775,3.13364055 L16.8734491,7.02658632 C16.8671471,7.0766072 16.8671471,7.12722123 16.8734491,7.17724211 C16.8731979,7.33191542 16.9500324,7.47654504 17.078341,7.56292095 L17.078341,7.56292095 C17.4425221,7.81520684 17.669005,8.22221429 17.6914231,8.66467722 C17.7138412,9.10714015 17.529656,9.53495478 17.1928394,9.82275789 C16.3864391,10.5124915 15.923729,11.5216402 15.9273307,12.5827721 L15.9273307,13.9748316 L9.03934775,10.0216235 L8.19567529,11.4920241 L15.8851471,15.9273307 L15.8851471,16.9939738 L14.9571074,17.5303084 L7.27968805,13.0889755 L6.42998937,14.5593761 L13.25771,18.506558 L12.0524637,19.1995746 C11.1355605,19.7358853 10.5008708,20.6482517 10.3169089,21.6944346 L10.3169089,21.6944346 C10.2346998,22.1315765 9.95432123,22.505836 9.5579015,22.7075853 C9.16148176,22.9093346 8.69389086,22.9157382 8.292095,22.7249202 L8.292095,22.7249202 C8.15850638,22.6531378 7.99782117,22.6531378 7.86423254,22.7249202 C7.81931085,22.7506305 7.77865199,22.7831576 7.7437079,22.82134 L5.05600851,25.9610067 C4.97859519,26.0541187 4.96737165,26.1855953 5.0278828,26.2904813 C5.08839394,26.3953673 5.20783181,26.4514622 5.32718894,26.4310528 L9.3888692,25.6717476 C9.43729802,25.6599808 9.48391914,25.6417378 9.52747253,25.6175115 C9.66212844,25.5417483 9.75024098,25.4039312 9.76249557,25.2499114 C9.80581898,24.8130815 10.0476174,24.4204399 10.418204,24.1851468 C10.7887906,23.9498538 11.2469939,23.8980498 11.6607586,24.044665 C12.6582323,24.3953463 13.7592244,24.291853 14.6738745,23.7614321 L15.8791209,23.0684155 L15.8791209,30.9386742 L17.572492,30.9386742 L17.572492,22.0620347 L18.4945055,21.5317263 L19.416519,22.0620347 L19.416519,30.9386742 L21.1098901,30.9386742 L21.1098901,23.0382843 L22.3151365,23.731301 C23.2297865,24.2617219 24.3307787,24.3652151 25.3282524,24.0145339 C25.7427448,23.8656386 26.2027498,23.9163046 26.5748998,24.1518426 C26.9470498,24.3873806 27.1897155,24.7814428 27.2325417,25.2197802 C27.2390933,25.3740038 27.3259988,25.51351 27.4615385,25.5873804 C27.5050918,25.6116066 27.551713,25.6298497 27.6001418,25.6416164 L31.661822,26.4009217 C31.783593,26.4297358 31.9098414,26.3752267 31.9723735,26.2668378 C32.0349055,26.1584489 32.0189,26.0218702 31.9330025,25.9308756 L31.9390287,25.9610067 Z M15.8911733,21.0918114 L13.6313364,22.3934775 C13.3459529,22.5600094 12.9932745,22.5610982 12.7068682,22.3963316 C12.420462,22.2315649 12.24412,21.9261361 12.2446259,21.5957177 C12.245134,21.2652992 12.4224124,20.960413 12.7093229,20.7965261 L14.9631336,19.4888337 L15.8911733,20.0251684 L15.8911733,21.0918114 Z M17.5845445,12.3537753 C17.5845445,11.8445613 17.997344,11.4317618 18.506558,11.4317618 C19.0157719,11.4317618 19.4285714,11.8445613 19.4285714,12.3537753 L19.4285714,14.9571074 L18.506558,15.493442 L17.5845445,14.9571074 L17.5845445,12.3537753 Z M19.5671748,19.1272598 L18.506558,19.729883 L17.4459412,19.1272598 L17.4459412,17.9220135 L18.506558,17.3193903 L19.5671748,17.9220135 L19.5671748,19.1272598 Z M24.6472882,22.0560085 C24.3903228,22.4977505 23.8245795,22.6486153 23.3817795,22.3934775 L21.1219426,21.0918114 L21.1219426,20.0191421 L22.0499823,19.4828075 L24.303793,20.7904998 C24.5165843,20.9117574 24.6723878,21.112695 24.7368293,21.3489805 C24.8012708,21.585266 24.7690545,21.8374817 24.6472882,22.0499823 L24.6472882,22.0560085 Z" id="Shape"></path>
            <polygon id="Path" points="141.730946 14.7461893 135.554059 14.7461893 135.554059 2.39844027 129.913506 2.39844027 129.913506 34.6146756 135.554059 34.6146756 135.554059 20.4711095 141.730946 20.4711095 141.730946 34.6146756 147.49805 34.6146756 147.49805 2.39844027 141.730946 2.39844027"></polygon>
            <polygon id="Path" points="54.8808933 2.39844027 50.6203474 14.9510812 46.763559 2.39844027 41.1350585 2.39844027 47.3963134 22.1524282 47.3963134 34.6146756 53.6635945 34.6146756 53.6635945 21.5136476 60.1538462 2.39844027"></polygon>
            <polygon id="Path" points="92.8461538 17.7231478 89.7125133 2.39844027 80.9081886 2.39844027 80.9081886 34.6146756 85.9581709 34.6146756 85.9581709 10.3289614 90.2669266 31.4448777 94.9854661 31.4448777 98.8060971 9.98546615 98.8060971 34.6146756 104.729883 34.6146756 104.729883 2.39844027 95.5519319 2.39844027"></polygon>
            <path d="M164.69089,2.41049273 L155.964906,2.41049273 L150.053173,34.6146756 L155.271889,34.6146756 L156.543424,27.1180432 L163.039702,27.1180432 L164.244949,34.6146756 L170,34.6146756 L164.69089,2.41049273 Z M157.459412,21.7607231 L159.869904,7.35200284 L162.202056,21.7607231 L157.459412,21.7607231 Z" id="Shape"></path>
            <path d="M113.196739,2.41049273 L107.30911,34.6267281 L112.533853,34.6267281 L113.781283,27.1180432 L120.277561,27.1180432 L121.482808,34.6146756 L127.231833,34.6146756 L121.922722,2.41049273 L113.196739,2.41049273 Z M114.673166,21.7607231 L117.083658,7.35200284 L119.41581,21.7607231 L114.673166,21.7607231 Z" id="Shape"></path>
            <path d="M64.1914215,2.41049273 L58.303793,34.6146756 L63.5225097,34.6146756 L64.775966,27.1180432 L71.2662177,27.1180432 L72.471464,34.6146756 L78.2204892,34.6146756 L72.9174052,2.41049273 L64.1914215,2.41049273 Z M65.685927,21.7486707 L68.0964197,7.33995037 L70.4225452,21.7486707 L65.685927,21.7486707 Z" id="Shape"></path>
        </g>
    </g>
</svg>